<?xml version="1.0" encoding="UTF-8" standalone="no"?>
<!-- Created with Inkscape (http://www.inkscape.org/) -->

<svg
   xmlns:dc="http://purl.org/dc/elements/1.1/"
   xmlns:cc="http://creativecommons.org/ns#"
   xmlns:rdf="http://www.w3.org/1999/02/22-rdf-syntax-ns#"
   xmlns:svg="http://www.w3.org/2000/svg"
   xmlns="http://www.w3.org/2000/svg"
   xmlns:sodipodi="http://sodipodi.sourceforge.net/DTD/sodipodi-0.dtd"
   xmlns:inkscape="http://www.inkscape.org/namespaces/inkscape"
   width="744.09448819"
   height="1052.3622047"
   id="svg2"
   version="1.1"
   inkscape:version="0.48.1 r9760"
   sodipodi:docname="New document 1">
  <defs
     id="defs4" />
  <sodipodi:namedview
     id="base"
     pagecolor="#ffffff"
     bordercolor="#666666"
     borderopacity="1.0"
     inkscape:pageopacity="0.0"
     inkscape:pageshadow="2"
     inkscape:zoom="1.4"
     inkscape:cx="241.40894"
     inkscape:cy="751.2802"
     inkscape:document-units="px"
     inkscape:current-layer="layer1"
     showgrid="false"
     inkscape:window-width="916"
     inkscape:window-height="852"
     inkscape:window-x="58"
     inkscape:window-y="0"
     inkscape:window-maximized="0" />
  <metadata
     id="metadata7">
    <rdf:RDF>
      <cc:Work
         rdf:about="">
        <dc:format>image/svg+xml</dc:format>
        <dc:type
           rdf:resource="http://purl.org/dc/dcmitype/StillImage" />
        <dc:title></dc:title>
      </cc:Work>
    </rdf:RDF>
  </metadata>
  <g
     inkscape:label="Layer 1"
     inkscape:groupmode="layer"
     id="layer1">
    <path
       inkscape:connector-curvature="0"
       id="path2998"
       d="m 174.04811,331.15574 c -10.58409,-1.72578 -17.88977,-7.69466 -24.21026,-19.78021 -2.42247,-4.63206 -2.42367,-4.63252 -3.37405,-1.32391 -0.52289,1.82038 -1.01011,6.43513 -1.08268,10.25496 l -0.132,6.94519 -6.61284,-2.51268 c -15.45815,-5.87365 -28.28924,-17.21646 -35.00658,-30.94621 -3.46629,-7.08486 -7.970526,-24.2055 -9.399803,-35.72875 -0.76109,-6.1362 -0.99883,-6.42127 -8.52111,-10.21851 -9.290027,-4.6896 -21.705524,-15.88353 -28.40385,-25.60921 l -4.885088,-7.09292 2.923133,-4.95435 2.923146,-4.95434 1.627917,4.73531 c 2.009563,5.84543 4.704902,10.01802 10.986658,17.00823 5.519933,6.14247 19.329424,15.55343 22.822864,15.55343 1.278517,0 7.888483,-2.66837 14.688813,-5.92972 14.89434,-7.14309 23.93959,-9.58665 39.96459,-10.79638 l 12.10627,-0.9139 -4.02875,4.58849 c -5.70677,6.49965 -10.13508,14.00724 -9.63013,16.32656 0.30084,1.38187 3.94603,-0.84924 12.09422,-7.4025 11.15338,-8.9702 12.63995,-9.7175 33.98406,-17.08364 12.27626,-4.23669 30.56031,-9.59887 40.63121,-11.91594 18.06373,-4.15602 44.26467,-9.23837 47.62639,-9.23837 0.96445,0 -1.41754,4.61771 -5.39559,10.45985 -6.68032,9.81067 -11.28027,22.16389 -9.85044,26.4534 0.28007,0.84024 5.82739,-4.75584 12.32736,-12.4357 12.61108,-14.90027 19.59077,-21.28886 28.10983,-25.72923 5.07787,-2.64674 6.21034,-2.71038 25.71141,-1.44473 29.45459,1.91165 52.37156,6.44783 73.31254,14.51147 11.232,4.32506 27.76259,13.20222 26.6522,14.31262 -0.40251,0.4025 -6.55407,2.63857 -13.67012,4.96902 -15.10095,4.94545 -27.88746,10.62482 -38.677,17.17912 -7.52707,4.57246 -7.81794,4.6352 -13.00541,2.80495 -2.91838,-1.02967 -7.12516,-2.81276 -9.3484,-3.96245 l -4.04226,-2.09032 -0.77397,5.61926 c -0.42569,3.09061 -0.61065,7.33512 -0.411,9.43225 0.35353,3.7136 -0.48232,4.25563 -32.07301,20.79822 -31.31915,16.40039 -43.27146,21.30087 -66.19593,27.14042 l -8.60547,2.19208 -12.57723,-5.54048 c -6.91747,-3.04725 -13.32193,-5.86505 -14.23213,-6.26177 -4.03784,-1.75991 -0.43317,12.84655 4.09767,16.60407 1.20501,0.99935 2.19095,2.50992 2.19095,3.35681 0,1.68613 -25.2731,10.68334 -33.75993,12.01851 -2.91262,0.45822 -6.4872,1.0117 -7.94351,1.22996 -1.45631,0.21825 -5.47603,-0.0643 -8.93271,-0.62796 z"
       style="fill:#2a5b8b" />
  </g>
</svg>
