<?xml version="1.0" encoding="UTF-8" standalone="no"?>
<!-- Created with Inkscape (http://www.inkscape.org/) -->

<svg
   xmlns:dc="http://purl.org/dc/elements/1.1/"
   xmlns:cc="http://creativecommons.org/ns#"
   xmlns:rdf="http://www.w3.org/1999/02/22-rdf-syntax-ns#"
   xmlns:svg="http://www.w3.org/2000/svg"
   xmlns="http://www.w3.org/2000/svg"
   xmlns:xlink="http://www.w3.org/1999/xlink"
   xmlns:sodipodi="http://sodipodi.sourceforge.net/DTD/sodipodi-0.dtd"
   xmlns:inkscape="http://www.inkscape.org/namespaces/inkscape"
   version="1.1"
   width="48"
   height="48"
   id="svg5987"
   inkscape:version="0.48.1 r9760"
   sodipodi:docname="hpkg-propaganda.svg"
   inkscape:export-filename="/Users/jacklaxson/Projects/batisseur/hpkg-propaganda.png"
   inkscape:export-xdpi="391.29999"
   inkscape:export-ydpi="391.29999">
  <metadata
     id="metadata54">
    <rdf:RDF>
      <cc:Work
         rdf:about="">
        <dc:format>image/svg+xml</dc:format>
        <dc:type
           rdf:resource="http://purl.org/dc/dcmitype/StillImage" />
        <dc:title></dc:title>
      </cc:Work>
    </rdf:RDF>
  </metadata>
  <sodipodi:namedview
     pagecolor="#ffffff"
     bordercolor="#666666"
     borderopacity="1"
     objecttolerance="10"
     gridtolerance="10"
     guidetolerance="10"
     inkscape:pageopacity="0"
     inkscape:pageshadow="2"
     inkscape:window-width="1052"
     inkscape:window-height="656"
     id="namedview52"
     showgrid="false"
     inkscape:zoom="5.4583333"
     inkscape:cx="14.490905"
     inkscape:cy="28.918798"
     inkscape:window-x="227"
     inkscape:window-y="0"
     inkscape:window-maximized="0"
     inkscape:current-layer="svg5987" />
  <defs
     id="defs5989">
    <linearGradient
       id="linearGradient5425">
      <stop
         style="stop-color:#2a5a8b;stop-opacity:1;"
         offset="0"
         id="stop5427" />
      <stop
         style="stop-color:#2a5b8b;stop-opacity:0;"
         offset="1"
         id="stop5429" />
    </linearGradient>
    <linearGradient
       id="linearGradient5409">
      <stop
         style="stop-color:#677821;stop-opacity:1;"
         offset="0"
         id="stop5411" />
      <stop
         style="stop-color:#677821;stop-opacity:0;"
         offset="1"
         id="stop5413" />
    </linearGradient>
    <radialGradient
       cx="5"
       cy="41.5"
       r="5"
       fx="5"
       fy="41.5"
       id="radialGradient3314"
       xlink:href="#linearGradient3681"
       gradientUnits="userSpaceOnUse"
       gradientTransform="matrix(0.5938225,0,0,1.5366531,41.140892,-103.93618)" />
    <linearGradient
       id="linearGradient3703">
      <stop
         id="stop3705"
         style="stop-color:black;stop-opacity:0"
         offset="0" />
      <stop
         id="stop3711"
         style="stop-color:black;stop-opacity:1"
         offset="0.5" />
      <stop
         id="stop3707"
         style="stop-color:black;stop-opacity:0"
         offset="1" />
    </linearGradient>
    <linearGradient
       x1="17.554192"
       y1="46.000275"
       x2="17.554192"
       y2="34.999718"
       id="linearGradient3312"
       xlink:href="#linearGradient3703"
       gradientUnits="userSpaceOnUse"
       gradientTransform="matrix(1.7570316,0,0,1.3969574,-17.394014,-16.411698)" />
    <linearGradient
       id="linearGradient3681">
      <stop
         id="stop3683"
         style="stop-color:black;stop-opacity:1"
         offset="0" />
      <stop
         id="stop3685"
         style="stop-color:black;stop-opacity:0"
         offset="1" />
    </linearGradient>
    <radialGradient
       cx="5"
       cy="41.5"
       r="5"
       fx="5"
       fy="41.5"
       id="radialGradient3310"
       xlink:href="#linearGradient3681"
       gradientUnits="userSpaceOnUse"
       gradientTransform="matrix(0.5938225,0,0,1.5366531,-6.6594735,-103.93618)" />
    <linearGradient
       id="linearGradient3295">
      <stop
         id="stop3297"
         style="stop-color:#c9af8b;stop-opacity:1"
         offset="0" />
      <stop
         id="stop3299"
         style="stop-color:#ad8757;stop-opacity:1"
         offset="0.23942046" />
      <stop
         id="stop3301"
         style="stop-color:#c2a57f;stop-opacity:1"
         offset="0.27582464" />
      <stop
         id="stop3303"
         style="stop-color:#9d7d53;stop-opacity:1"
         offset="1" />
    </linearGradient>
    <linearGradient
       x1="15.464298"
       y1="7.9756851"
       x2="15.464298"
       y2="45.04248"
       id="linearGradient3293"
       xlink:href="#linearGradient3295"
       gradientUnits="userSpaceOnUse" />
    <linearGradient
       id="linearGradient3199">
      <stop
         id="stop3201"
         style="stop-color:#dac197;stop-opacity:1"
         offset="0" />
      <stop
         id="stop3203"
         style="stop-color:#c1a581;stop-opacity:1"
         offset="0.23942046" />
      <stop
         id="stop3205"
         style="stop-color:#dbc298;stop-opacity:1"
         offset="0.27582464" />
      <stop
         id="stop3207"
         style="stop-color:#a68b60;stop-opacity:1"
         offset="1" />
    </linearGradient>
    <linearGradient
       x1="24.822832"
       y1="15.377745"
       x2="24.996943"
       y2="37.27668"
       id="linearGradient3197"
       xlink:href="#linearGradient3199"
       gradientUnits="userSpaceOnUse"
       gradientTransform="matrix(1.2822251,0,0,1.5572619,-6.0701918,-15.290756)" />
    <linearGradient
       id="linearGradient4559">
      <stop
         id="stop4561"
         style="stop-color:white;stop-opacity:0"
         offset="0" />
      <stop
         id="stop4563"
         style="stop-color:white;stop-opacity:0"
         offset="1" />
    </linearGradient>
    <linearGradient
       x1="23.451576"
       y1="30.554907"
       x2="43.00663"
       y2="45.934479"
       id="linearGradient2659"
       xlink:href="#linearGradient4559"
       gradientUnits="userSpaceOnUse"
       gradientTransform="matrix(1.2822251,0,0,1.1746872,-6.0701918,-5.3031677)" />
    <linearGradient
       id="linearGradient3827">
      <stop
         id="stop3829"
         style="stop-color:white;stop-opacity:1"
         offset="0" />
      <stop
         id="stop4295"
         style="stop-color:white;stop-opacity:1"
         offset="0.3021296" />
      <stop
         id="stop4293"
         style="stop-color:white;stop-opacity:0.6901961"
         offset="0.34361121" />
      <stop
         id="stop3832"
         style="stop-color:white;stop-opacity:0"
         offset="1" />
    </linearGradient>
    <linearGradient
       x1="26"
       y1="22"
       x2="26"
       y2="8"
       id="linearGradient3834"
       xlink:href="#linearGradient3827"
       gradientUnits="userSpaceOnUse" />
    <linearGradient
       id="linearGradient3275">
      <stop
         id="stop3277"
         style="stop-color:white;stop-opacity:0"
         offset="0" />
      <stop
         id="stop3283"
         style="stop-color:white;stop-opacity:1"
         offset="0.245" />
      <stop
         id="stop3285"
         style="stop-color:white;stop-opacity:1"
         offset="0.77350003" />
      <stop
         id="stop3279"
         style="stop-color:white;stop-opacity:0"
         offset="1" />
    </linearGradient>
    <linearGradient
       x1="44.994774"
       y1="17.5"
       x2="3.0052247"
       y2="17.5"
       id="linearGradient3281"
       xlink:href="#linearGradient3275"
       gradientUnits="userSpaceOnUse"
       spreadMethod="reflect" />
    <linearGradient
       inkscape:collect="always"
       xlink:href="#linearGradient3275"
       id="linearGradient3033"
       gradientUnits="userSpaceOnUse"
       spreadMethod="reflect"
       x1="44.994774"
       y1="17.5"
       x2="3.0052247"
       y2="17.5" />
    <linearGradient
       inkscape:collect="always"
       xlink:href="#linearGradient3827"
       id="linearGradient3036"
       gradientUnits="userSpaceOnUse"
       x1="26"
       y1="22"
       x2="26"
       y2="8" />
    <linearGradient
       inkscape:collect="always"
       xlink:href="#linearGradient4559"
       id="linearGradient3039"
       gradientUnits="userSpaceOnUse"
       gradientTransform="matrix(1.2822251,0,0,1.1746872,-6.0701918,-5.3031677)"
       x1="23.451576"
       y1="30.554907"
       x2="43.00663"
       y2="45.934479" />
    <linearGradient
       inkscape:collect="always"
       xlink:href="#linearGradient3199"
       id="linearGradient3042"
       gradientUnits="userSpaceOnUse"
       gradientTransform="matrix(1.2822251,0,0,1.5572619,-6.0701918,-15.290756)"
       x1="24.822832"
       y1="15.377745"
       x2="24.996943"
       y2="37.27668" />
    <linearGradient
       inkscape:collect="always"
       xlink:href="#linearGradient3295"
       id="linearGradient3044"
       gradientUnits="userSpaceOnUse"
       x1="15.464298"
       y1="7.9756851"
       x2="15.464298"
       y2="45.04248" />
  </defs>
  <g
     style="opacity:0.4;display:inline"
     id="g3305"
     transform="matrix(0.9926623,0,0,0.9761474,0.2751901,1.2929634)">
    <rect
       style="fill:url(#radialGradient3310);fill-opacity:1;stroke:none"
       id="rect2484"
       transform="scale(-1,-1)"
       y="-47.848343"
       x="-3.6903627"
       height="15.366531"
       width="2.9601951" />
    <rect
       style="fill:url(#linearGradient3312);fill-opacity:1;stroke:none"
       id="rect2486"
       y="32.481812"
       x="3.6903627"
       height="15.366531"
       width="40.41172" />
    <rect
       style="fill:url(#radialGradient3314);fill-opacity:1;stroke:none;display:inline"
       id="rect3444"
       transform="scale(1,-1)"
       y="-47.848343"
       x="44.110001"
       height="15.366531"
       width="2.9601951" />
  </g>
  <path
     inkscape:connector-curvature="0"
     style="fill:url(#linearGradient3042);fill-opacity:1;fill-rule:nonzero;stroke:url(#linearGradient3044);stroke-width:0.99420077;stroke-linecap:round;stroke-linejoin:miter;stroke-miterlimit:4;stroke-opacity:1;stroke-dasharray:none;stroke-dashoffset:0;marker:none;visibility:visible;display:block;overflow:visible"
     id="path2488"
     d="m 9.010725,8.5 29.497723,0 c 1.721985,0 2.496922,-0.2865505 2.991552,1 l 3.001734,8 0,25.673912 c 0,1.553304 0.10293,1.315976 -1.619063,1.315976 l -37.7653422,0 c -1.7219924,0 -1.6190635,0.237328 -1.6190635,-1.315976 L 3.4982653,17.5 6.5,9.5 c 0.4808316,-1.2605622 0.7887325,-1 2.510725,-1 z" />
  <path
     inkscape:connector-curvature="0"
     style="opacity:0.50549454;fill:none;stroke:url(#linearGradient3039);stroke-width:0.74211526;stroke-linecap:butt;stroke-linejoin:miter;stroke-miterlimit:4;stroke-opacity:1;stroke-dasharray:none;stroke-dashoffset:0;marker:none;visibility:visible;display:block;overflow:visible"
     id="path2490"
     d="m 9.948194,9.5129459 27.652872,0 c 1.614293,0 2.61338,0.5565361 3.289521,2.0860281 l 2.32894,6.419721 0,23.144557 c 0,1.460676 -0.818759,2.196085 -2.433056,2.196085 l -33.7332031,0 c -1.6142934,0 -2.2727761,-0.808827 -2.2727761,-2.269504 l 0,-23.071138 2.2538109,-6.55736 C 7.4850649,10.275943 8.3338968,9.5129459 9.948194,9.5129459 z" />
  <path
     inkscape:connector-curvature="0"
     style="opacity:0.4;fill:url(#linearGradient3036);fill-opacity:1;fill-rule:nonzero;stroke:none;stroke-width:1;marker:none;visibility:visible;display:inline;overflow:visible;enable-background:accumulate"
     id="rect3326"
     d="m 22,8 c 1.333333,0 2.666667,0 4,0 0,4.666667 0,9.333333 0,14 -0.393729,0 -0.787458,0 -1.181187,0 -0.403125,0 -0.80625,0 -1.209375,0 -0.324529,0 -0.649057,0 -0.973585,0 C 22.423902,22 22.211951,22 22,22 22,17.333333 22,12.666667 22,8 z" />
  <path
     inkscape:connector-curvature="0"
     style="opacity:0.4;fill:none;stroke:url(#linearGradient3033);stroke-width:1px;stroke-linecap:square;stroke-linejoin:miter;stroke-opacity:1;display:inline"
     id="path3273"
     d="m 3.5052248,17.5 40.9895502,0" />
  <g
     id="layer1"
     inkscape:label="Layer 1"
     transform="matrix(0.09988913,0,0,0.09988913,0.88721583,5.5113878)"
     style="fill-opacity:1;fill:#2a5b8b;fill-rule:nonzero;opacity:0.75">
    <path
       style="fill:#2a5b8b;fill-opacity:1;fill-rule:nonzero"
       d="m 174.04811,331.15574 c -10.58409,-1.72578 -17.88977,-7.69466 -24.21026,-19.78021 -2.42247,-4.63206 -2.42367,-4.63252 -3.37405,-1.32391 -0.52289,1.82038 -1.01011,6.43513 -1.08268,10.25496 l -0.132,6.94519 -6.61284,-2.51268 c -15.45815,-5.87365 -28.28924,-17.21646 -35.00658,-30.94621 -3.46629,-7.08486 -7.970526,-24.2055 -9.399803,-35.72875 -0.76109,-6.1362 -0.99883,-6.42127 -8.52111,-10.21851 -9.290027,-4.6896 -21.705524,-15.88353 -28.40385,-25.60921 l -4.885088,-7.09292 2.923133,-4.95435 2.923146,-4.95434 1.627917,4.73531 c 2.009563,5.84543 4.704902,10.01802 10.986658,17.00823 5.519933,6.14247 19.329424,15.55343 22.822864,15.55343 1.278517,0 7.888483,-2.66837 14.688813,-5.92972 14.89434,-7.14309 23.93959,-9.58665 39.96459,-10.79638 l 12.10627,-0.9139 -4.02875,4.58849 c -5.70677,6.49965 -10.13508,14.00724 -9.63013,16.32656 0.30084,1.38187 3.94603,-0.84924 12.09422,-7.4025 11.15338,-8.9702 12.63995,-9.7175 33.98406,-17.08364 12.27626,-4.23669 30.56031,-9.59887 40.63121,-11.91594 18.06373,-4.15602 44.26467,-9.23837 47.62639,-9.23837 0.96445,0 -1.41754,4.61771 -5.39559,10.45985 -6.68032,9.81067 -11.28027,22.16389 -9.85044,26.4534 0.28007,0.84024 5.82739,-4.75584 12.32736,-12.4357 12.61108,-14.90027 19.59077,-21.28886 28.10983,-25.72923 5.07787,-2.64674 6.21034,-2.71038 25.71141,-1.44473 29.45459,1.91165 52.37156,6.44783 73.31254,14.51147 11.232,4.32506 27.76259,13.20222 26.6522,14.31262 -0.40251,0.4025 -6.55407,2.63857 -13.67012,4.96902 -15.10095,4.94545 -27.88746,10.62482 -38.677,17.17912 -7.52707,4.57246 -7.81794,4.6352 -13.00541,2.80495 -2.91838,-1.02967 -7.12516,-2.81276 -9.3484,-3.96245 l -4.04226,-2.09032 -0.77397,5.61926 c -0.42569,3.09061 -0.61065,7.33512 -0.411,9.43225 0.35353,3.7136 -0.48232,4.25563 -32.07301,20.79822 -31.31915,16.40039 -43.27146,21.30087 -66.19593,27.14042 l -8.60547,2.19208 -12.57723,-5.54048 c -6.91747,-3.04725 -13.32193,-5.86505 -14.23213,-6.26177 -4.03784,-1.75991 -0.43317,12.84655 4.09767,16.60407 1.20501,0.99935 2.19095,2.50992 2.19095,3.35681 0,1.68613 -25.2731,10.68334 -33.75993,12.01851 -2.91262,0.45822 -6.4872,1.0117 -7.94351,1.22996 -1.45631,0.21825 -5.47603,-0.0643 -8.93271,-0.62796 z"
       id="path2998"
       inkscape:connector-curvature="0" />
  </g>
</svg>
